<?xml version="1.0" standalone="no"?>
<!DOCTYPE svg PUBLIC "-//W3C//DTD SVG 20010904//EN"
 "http://www.w3.org/TR/2001/REC-SVG-20010904/DTD/svg10.dtd">
<svg version="1.0" xmlns="http://www.w3.org/2000/svg"
 width="1024.000000pt" height="1024.000000pt" viewBox="0 0 1024.000000 1024.000000"
 preserveAspectRatio="xMidYMid meet">

<g transform="translate(0.000000,1024.000000) scale(0.100000,-0.100000)"
fill="#000000" stroke="none">
<path d="M0 5120 l0 -5120 5120 0 5120 0 0 5120 0 5120 -5120 0 -5120 0 0
-5120z m2770 4085 c0 -26 -5 -33 -30 -40 l-30 -10 -4 -127 -4 -126 29 -28 c26
-24 29 -35 29 -86 l0 -59 -102 3 -103 3 -3 38 c-4 43 -9 44 -108 26 -519 -92
-924 -517 -999 -1051 l-7 -47 41 -7 42 -7 -3 -91 -3 -91 -39 -3 -38 -3 6 -50
c12 -92 55 -239 96 -334 162 -368 513 -643 914 -714 93 -17 93 -17 100 34 l7
45 100 0 99 0 0 -44 c0 -25 4 -47 9 -50 15 -9 189 30 286 64 118 42 191 79
299 154 254 173 423 426 502 750 34 141 33 146 -16 146 l-40 0 0 94 0 93 40 7
c47 7 47 10 25 124 -62 306 -227 573 -464 748 -60 43 -81 65 -81 82 0 12 4 22
8 22 15 0 124 -80 195 -142 207 -184 355 -470 397 -768 16 -115 24 -120 181
-120 l127 0 7 30 c5 25 12 30 35 30 l28 0 0 -105 0 -105 -27 0 c-22 0 -29 6
-36 33 l-10 32 -125 -3 c-124 -3 -125 -3 -152 -32 -19 -20 -28 -41 -28 -63 0
-71 -58 -267 -117 -396 -107 -238 -343 -474 -588 -591 -144 -69 -241 -98 -397
-120 -113 -16 -118 -24 -118 -181 l0 -128 33 -9 c24 -6 33 -14 35 -34 l3 -25
-110 0 -111 1 0 28 c0 20 5 28 18 28 39 0 43 13 45 140 3 157 -1 163 -110 179
-309 45 -563 175 -770 395 -175 185 -299 435 -334 676 -19 129 -22 131 -183
128 -130 -3 -130 -3 -136 -28 -4 -19 -13 -26 -37 -28 l-31 -3 1 105 1 106 32
0 c27 0 32 -4 38 -30 l6 -30 127 0 c116 0 129 2 150 22 13 12 23 33 23 49 0
45 29 184 56 266 149 461 560 810 1032 874 130 18 132 22 132 181 l0 129 -30
6 c-26 5 -30 10 -30 37 l0 31 110 0 110 0 0 -30z m-218 -163 l-4 -59 -106 -18
c-59 -9 -114 -18 -122 -20 -8 -1 -24 -6 -35 -10 -11 -4 -55 -20 -97 -36 -169
-63 -320 -152 -451 -266 -176 -154 -322 -373 -400 -603 -27 -79 -67 -260 -67
-304 0 -25 -2 -26 -58 -26 -32 0 -61 2 -63 5 -10 9 13 162 41 272 51 203 150
393 303 584 226 281 590 484 957 533 52 7 97 12 100 10 3 -1 4 -29 2 -62z
m373 46 c207 -31 443 -134 644 -281 l58 -42 -33 -53 c-19 -28 -36 -52 -40 -52
-3 0 -32 20 -64 45 -172 132 -393 226 -624 265 l-101 17 -3 62 -3 62 48 -6
c26 -3 80 -11 118 -17z m5355 -65 c-3 -27 -16 -65 -30 -86 l-25 -39 -300 4
-300 3 -3 -102 -3 -103 -54 0 -55 0 0 100 0 100 -332 -2 -333 -3 0 -135 0
-135 228 -5 228 -5 -33 -32 -33 -33 -195 -2 -195 -3 -3 -125 c-4 -183 -17
-167 140 -166 l133 1 3 -32 3 -33 -134 0 -134 0 -5 -57 c-7 -78 -3 -221 6
-231 4 -4 86 -7 182 -7 110 0 174 -4 174 -10 0 -5 -8 -20 -18 -32 -16 -22 -25
-23 -182 -25 l-165 -3 -3 -137 -3 -136 -28 -10 c-16 -6 -32 -8 -35 -5 -3 4 -6
71 -6 150 l0 143 -170 0 -170 0 0 -150 0 -150 163 0 162 0 -55 -35 c-54 -34
-57 -35 -162 -35 l-108 0 0 -45 0 -45 -42 21 c-36 18 -47 20 -78 10 -21 -6
-40 -11 -44 -11 -3 0 -6 354 -6 788 0 873 -3 827 65 872 29 19 51 20 995 20
l966 0 -6 -47z m536 5 l34 -38 0 -265 0 -265 -32 0 c-18 0 -44 -9 -58 -20 -25
-19 -25 -20 -3 -20 12 0 38 -8 58 -17 l35 -17 0 -978 c0 -1062 3 -1004 -55
-1058 -25 -24 -33 -25 -165 -28 l-139 -3 -7 25 c-3 15 -24 41 -47 60 -33 28
-39 37 -34 59 7 24 11 25 85 28 63 3 86 9 115 29 51 34 87 108 87 177 l0 53
-62 1 c-35 1 -75 1 -90 0 -35 -1 -35 2 -1 39 24 27 32 30 90 30 l63 0 0 149
c0 88 -4 151 -10 153 -5 2 -12 18 -16 36 -5 25 -3 32 10 32 14 0 16 17 16 135
l0 135 -97 0 c-94 0 -100 2 -153 35 l-55 34 150 3 150 3 0 145 0 145 -170 0
-170 0 -3 -144 c-3 -143 -3 -143 -25 -137 -12 3 -28 6 -34 6 -10 0 -13 35 -13
140 l0 140 -153 0 -153 0 -17 29 c-9 16 -17 32 -17 35 0 4 75 5 168 4 l167 -3
5 112 5 111 58 66 58 66 150 0 149 0 0 150 0 150 -175 0 -175 0 0 -141 0 -140
-32 -40 -31 -39 -129 0 -128 0 0 30 0 30 125 0 125 0 0 150 0 150 -188 0 -188
0 -34 35 -35 36 220 -1 220 -2 5 144 c5 130 7 146 28 172 12 16 22 43 22 60 0
17 3 41 6 54 l7 23 224 -3 225 -3 34 -37z m-5018 -144 c39 -27 23 -84 -23 -84
-12 0 -39 -18 -60 -41 -46 -47 -95 -84 -95 -72 0 4 25 41 55 80 30 40 55 81
55 92 0 11 8 25 18 30 23 14 24 14 50 -5z m44 -333 c103 -128 100 -117 43
-167 l-49 -42 -42 62 c-23 34 -75 98 -116 141 l-75 79 51 37 51 37 38 -36 c21
-20 66 -70 99 -111z m3904 59 c157 -77 246 -231 231 -398 -7 -75 -48 -169 -96
-224 -17 -20 -31 -39 -31 -43 0 -9 82 -155 179 -318 l76 -128 71 6 c169 16
338 -74 409 -218 109 -225 -3 -485 -246 -567 -225 -76 -485 89 -515 326 l-6
54 -242 0 -241 0 -12 -61 c-25 -130 -106 -237 -228 -299 -65 -33 -75 -35 -164
-35 -124 1 -188 25 -271 102 -68 62 -113 145 -132 236 -22 114 23 256 110 345
81 83 216 130 336 118 l61 -6 131 221 132 222 -43 52 c-64 79 -80 130 -80 255
0 93 3 112 27 162 36 77 81 132 141 170 84 54 140 69 243 65 80 -2 100 -7 160
-37z m-3612 -86 c34 -33 8 -84 -42 -84 -15 0 -40 -9 -57 -21 -38 -26 -146 -81
-150 -77 -2 2 34 32 80 68 45 36 88 75 94 88 9 18 24 30 58 41 1 1 9 -6 17
-15z m-1044 -134 c0 -4 -67 -145 -149 -313 -82 -168 -151 -313 -153 -323 -3
-17 6 -19 85 -22 48 -1 87 -7 87 -12 0 -6 -4 -10 -10 -10 -5 0 -10 -5 -10 -11
0 -6 6 -9 14 -6 8 3 17 1 20 -6 4 -7 4 -2 2 10 -2 12 2 24 8 26 26 10 221 2
221 -9 0 -18 -128 -169 -133 -156 -2 7 -8 12 -14 12 -6 0 -6 -6 2 -15 14 -17
15 -15 -125 -191 -183 -231 -298 -378 -420 -539 -154 -204 -162 -213 -139
-160 30 69 272 800 267 808 -2 4 -85 7 -183 7 -98 0 -181 4 -184 8 -3 5 20
103 50 218 30 115 82 310 114 434 32 124 62 233 66 243 6 17 26 18 295 16 159
0 289 -5 289 -9z m-684 -16 c-3 -9 -6 -19 -6 -24 0 -4 -42 -28 -92 -54 -51
-25 -119 -66 -150 -91 -77 -62 -170 -179 -214 -271 -98 -204 -95 -472 7 -677
73 -147 207 -282 345 -347 62 -30 72 -42 56 -67 -11 -17 -137 47 -221 111
-121 94 -230 257 -283 426 -33 107 -33 318 0 435 74 260 264 470 509 560 50
18 56 18 49 -1z m1582 -36 c17 -22 99 -220 125 -303 27 -86 57 -247 57 -302
l0 -34 -57 3 c-56 3 -58 4 -61 33 -12 131 -76 344 -144 480 -22 43 -36 81 -32
82 5 2 27 14 49 27 48 29 50 29 63 14z m-732 -160 c132 -137 199 -273 224
-453 53 -379 -152 -745 -499 -890 -101 -42 -207 -65 -305 -65 l-88 0 14 23
c14 19 27 23 109 29 302 21 567 219 678 507 41 106 55 203 48 331 -12 201 -93
370 -246 512 -74 68 -79 76 -59 96 16 16 34 4 124 -90z m-1992 -686 c2 -4 12
-51 20 -103 30 -182 85 -343 164 -475 l49 -81 -55 -27 c-51 -26 -55 -26 -68
-9 -31 43 -117 218 -148 306 -43 118 -86 334 -77 388 2 9 109 11 115 1z m2902
-64 c-11 -93 -43 -235 -76 -332 -31 -92 -137 -306 -152 -306 -11 0 -108 49
-108 55 0 2 14 24 31 49 40 60 91 172 123 271 32 98 65 249 66 293 l0 32 61 0
62 0 -7 -62z m2228 -83 l36 -15 0 -75 c0 -74 0 -75 26 -75 23 0 25 -3 22 -32
-2 -28 -8 -34 -31 -36 l-28 -3 3 -142 3 -142 77 -3 c71 -3 80 -5 108 -33 16
-17 30 -32 30 -35 0 -2 -50 -4 -111 -4 l-111 0 7 -62 c9 -80 30 -124 78 -162
37 -30 43 -31 153 -34 l114 -4 0 97 c0 96 0 97 23 91 12 -3 28 -6 35 -6 9 0
12 -25 12 -90 l0 -90 340 0 341 0 -3 128 -3 127 -153 5 -153 5 33 32 c33 32
33 32 153 35 l120 3 -4 118 -3 117 56 0 56 0 0 -120 0 -120 127 0 c124 0 128
-1 155 -27 15 -15 28 -30 28 -35 0 -4 -70 -8 -155 -8 l-155 0 0 -130 c0 -97 3
-130 13 -131 26 -1 102 -1 365 0 l272 1 0 85 c0 77 2 85 19 85 11 0 26 3 34 6
12 4 16 -10 21 -78 9 -129 17 -172 36 -185 19 -14 42 -68 33 -77 -4 -3 -467
-6 -1031 -6 -1010 0 -1025 0 -1057 20 -65 40 -65 41 -65 517 l0 430 35 36 c40
42 48 43 99 22z m-4700 -729 c213 -210 469 -336 784 -387 l72 -12 0 -58 c0
-58 -1 -59 -27 -59 -116 0 -418 89 -560 165 -186 99 -349 228 -470 375 l-54
65 47 43 47 43 30 -38 c16 -21 75 -83 131 -137z m2144 138 c23 -19 42 -39 42
-43 0 -18 -134 -162 -218 -236 -249 -215 -526 -338 -839 -370 l-63 -7 0 59 0
60 104 17 c145 23 204 40 328 92 106 45 240 123 328 190 64 49 217 203 241
242 12 17 24 32 28 32 4 0 26 -16 49 -36z m-2378 11 c-7 -8 -43 -38 -81 -66
-38 -28 -69 -57 -69 -63 0 -7 -9 -21 -20 -31 -17 -15 -24 -16 -45 -7 -34 16
-36 69 -2 81 12 5 27 6 33 4 6 -2 49 19 95 46 86 52 111 62 89 36z m2591 -91
c10 -9 32 -18 49 -20 44 -5 50 -11 50 -44 0 -56 -71 -62 -85 -7 -4 12 -27 36
-53 54 -26 18 -69 53 -97 77 l-50 45 84 -44 c46 -25 92 -52 102 -61z m-895
-826 c8 -12 -42 -58 -63 -58 -19 0 -16 11 14 42 29 31 38 34 49 16z m4672 -9
c4 -20 -74 -64 -84 -48 -4 7 6 24 25 41 34 30 54 32 59 7z m-4881 -96 c8 -10
12 -12 8 -5 -7 14 -4 15 19 6 9 -3 16 -12 16 -19 0 -10 -14 -13 -55 -11 -36 3
-53 0 -48 -7 4 -6 -4 -7 -23 -3 -27 7 -28 7 -9 -8 17 -12 18 -15 5 -21 -13 -4
-16 -23 -15 -90 0 -103 20 -140 76 -140 34 0 34 0 37 53 3 50 2 52 -22 52 -18
0 -24 4 -20 15 4 10 20 15 45 15 l39 0 0 -80 c0 -79 -1 -81 -27 -91 -45 -17
-114 -5 -139 25 -32 36 -46 117 -34 190 11 71 31 103 73 121 43 19 57 18 74
-2z m3992 -9 c35 -29 51 -77 51 -154 0 -117 -40 -180 -115 -180 -83 0 -118 57
-117 186 1 83 25 143 64 161 40 20 84 15 117 -13z m287 18 c8 -5 1 -30 -22
-82 -18 -41 -34 -80 -34 -87 0 -7 16 -46 35 -89 19 -42 35 -81 35 -86 0 -5
-12 -8 -27 -6 -22 2 -31 14 -54 68 l-27 65 -31 -67 c-26 -58 -34 -68 -56 -68
-14 0 -25 3 -25 7 0 4 18 46 41 94 l41 86 -36 71 c-20 39 -36 76 -36 82 0 5
11 10 26 10 21 0 29 -9 51 -57 l26 -58 29 63 c29 60 40 70 64 54z m358 -2 c14
-5 26 -16 26 -25 0 -16 -3 -17 -64 -19 -51 -1 -78 -36 -84 -109 -8 -95 35
-169 88 -152 17 5 20 15 20 57 0 45 -2 50 -20 45 -16 -4 -20 0 -20 19 0 22 4
24 45 24 l45 0 0 -83 c0 -80 -1 -84 -25 -95 -64 -29 -142 -5 -169 52 -23 49
-21 168 4 224 27 61 91 86 154 62z m426 -120 l50 -115 0 118 0 117 25 0 25 0
-2 -172 -3 -173 -24 0 c-22 0 -30 13 -71 112 -25 62 -50 116 -54 120 -5 4 -5
-39 -2 -97 8 -116 3 -140 -25 -140 -18 0 -19 10 -19 174 0 158 2 175 18 179 9
2 20 1 24 -3 5 -3 30 -57 58 -120z m340 110 c38 -27 54 -79 54 -170 -1 -117
-38 -170 -120 -170 -35 0 -47 5 -68 30 -14 17 -31 50 -37 73 -14 52 -5 148 19
196 29 61 99 79 152 41z m-6350 -11 c0 -18 -5 -20 -52 -17 l-53 3 0 -55 c0
-59 -4 -56 68 -59 16 -1 27 -7 27 -15 0 -11 -14 -16 -47 -18 l-48 -3 0 -60 0
-60 53 -3 c37 -2 52 -7 52 -18 0 -11 -16 -14 -75 -14 l-74 0 -3 68 c-2 37 -2
113 0 170 l3 102 75 0 c68 0 74 -2 74 -21z m128 -26 c11 -27 36 -84 56 -128
l36 -80 0 128 c0 120 1 127 20 127 19 0 20 -7 20 -170 l0 -170 -24 0 c-20 0
-29 14 -70 109 -25 60 -46 114 -46 120 0 6 -4 11 -8 11 -4 0 -8 -55 -8 -122 1
-109 -1 -123 -16 -126 -17 -3 -18 9 -18 141 0 79 -3 159 -6 176 -6 28 -4 31
18 31 21 0 29 -9 46 -47z m362 27 c0 -17 -7 -20 -50 -20 l-50 0 0 -55 0 -55
45 0 c33 0 45 -4 45 -15 0 -11 -12 -15 -45 -15 l-45 0 0 -65 0 -65 54 0 c48 0
54 -2 49 -18 -3 -13 -13 -18 -31 -17 -15 1 -48 3 -74 3 l-48 2 0 170 0 170 75
0 c68 0 75 -2 75 -20z m221 -7 c13 -12 23 -39 26 -65 4 -37 1 -49 -21 -75
l-26 -31 31 -67 c24 -54 28 -70 17 -76 -24 -15 -29 -10 -63 66 -45 99 -65 101
-65 6 0 -65 -1 -69 -25 -73 l-25 -5 0 175 0 174 65 -4 c49 -3 71 -9 86 -25z
m409 -145 c0 -161 -1 -168 -20 -168 -19 0 -20 7 -20 168 0 161 1 168 20 168
19 0 20 -7 20 -168z m220 80 c13 -51 33 -128 45 -170 l23 -78 -23 0 c-18 0
-26 9 -37 43 -7 23 -16 41 -20 40 -5 -2 -28 -3 -52 -3 -44 0 -44 0 -51 -40 -6
-33 -11 -40 -30 -40 -22 0 -23 3 -15 28 5 15 25 88 45 162 21 74 39 138 42
143 2 4 14 7 27 7 20 0 25 -10 46 -92z m4000 -83 l0 -175 -25 0 -25 0 0 175 0
175 25 0 25 0 0 -175z m503 161 c8 -21 -2 -26 -55 -26 l-48 0 0 -50 0 -50 45
0 c41 0 45 -2 45 -25 0 -23 -4 -25 -45 -25 l-45 0 0 -54 0 -55 53 -3 c45 -3
52 -6 55 -25 3 -22 1 -23 -77 -23 l-81 0 0 175 0 175 74 0 c54 0 75 -4 79 -14z
m-5001 -1494 c24 -10 174 -95 333 -188 160 -92 394 -228 520 -300 127 -73 247
-149 267 -169 20 -20 50 -62 65 -93 26 -54 28 -66 31 -213 l4 -156 -33 -12
c-17 -6 -33 -11 -35 -11 -1 0 -4 69 -6 153 -3 143 -5 155 -31 209 -16 32 -44
70 -63 86 -19 16 -161 102 -317 192 -155 90 -347 202 -427 248 -338 196 -337
196 -412 200 -37 3 -83 1 -101 -2 -18 -3 -107 -48 -197 -99 -357 -202 -887
-511 -922 -539 -20 -16 -49 -54 -65 -86 -28 -57 -28 -57 -31 -297 -4 -252 -4
-255 -50 -255 l-23 0 3 263 3 262 28 57 c39 80 98 128 293 240 93 53 282 161
419 240 387 224 473 271 523 285 61 17 169 10 224 -15z m4783 12 c28 -8 145
-42 260 -75 116 -33 218 -62 228 -65 9 -3 24 -18 31 -33 8 -15 36 -55 62 -90
51 -68 63 -68 64 4 1 74 -2 74 211 5 107 -34 235 -75 284 -89 l90 -27 3 -123
3 -124 -91 -89 c-49 -49 -90 -94 -90 -100 0 -10 103 -5 158 9 22 5 22 4 22
-86 0 -88 -1 -93 -27 -117 l-28 -24 28 -24 29 -23 -4 -499 c-4 -482 -5 -502
-27 -574 -32 -106 -86 -203 -150 -269 -64 -66 -188 -166 -276 -223 -55 -36
-65 -39 -125 -38 -36 1 -69 1 -73 1 -5 -1 1 -13 12 -27 12 -15 21 -30 21 -34
0 -20 -629 -370 -664 -370 -26 0 -366 186 -627 342 l-224 134 -3 42 c-3 46 -7
49 -40 26 -25 -17 -26 -17 -103 43 -106 82 -224 257 -249 368 -7 28 -14 59
-18 70 -3 11 -7 140 -9 286 l-4 266 45 46 46 46 -42 8 -43 9 0 524 0 525 90
32 c50 17 100 32 112 32 20 1 123 -76 165 -121 15 -18 17 -16 37 37 12 31 21
58 21 62 0 3 -17 21 -37 39 l-38 32 30 12 c17 6 140 45 275 86 l244 74 67 -66
c63 -63 68 -65 78 -46 15 28 14 63 -4 105 l-15 36 38 11 c63 17 207 58 207 59
0 0 23 -6 50 -15z m-4790 -148 c33 -18 146 -82 250 -143 105 -61 316 -183 470
-272 295 -170 341 -205 363 -279 14 -46 17 -492 3 -492 -15 0 -21 71 -21 275
0 284 31 246 -415 503 -143 82 -359 208 -480 278 l-220 129 -75 0 -75 0 -145
-84 c-257 -149 -450 -261 -665 -383 -249 -143 -268 -156 -298 -211 -21 -40
-22 -55 -25 -314 l-4 -272 -34 -22 c-19 -11 -32 -25 -28 -30 3 -5 32 -23 65
-39 32 -17 59 -32 59 -34 0 -3 -23 -12 -50 -21 -28 -9 -85 -41 -126 -71 -42
-30 -78 -53 -80 -52 -1 2 17 34 42 72 24 38 44 72 44 75 0 4 -28 37 -62 75
l-62 68 60 -7 c46 -5 70 -2 102 10 l42 17 1 82 c1 44 2 158 3 251 1 151 3 175
22 215 30 64 58 86 249 195 94 54 322 185 508 292 187 107 353 201 370 209 18
7 59 13 92 13 49 1 71 -5 120 -33z m230 -387 c67 -80 100 -198 76 -272 -14
-40 -86 -127 -106 -127 -23 0 -83 80 -101 133 -19 58 -14 116 16 184 19 43 68
111 82 112 3 1 18 -13 33 -30z m-237 -162 c3 -80 1 -87 -17 -87 -10 0 -22 7
-25 16 -10 26 -7 124 5 145 21 40 34 14 37 -74z m450 -6 c-3 -63 -6 -76 -20
-79 -16 -3 -18 6 -18 81 0 89 5 104 27 85 10 -8 13 -32 11 -87z m-790 -33 c34
-50 175 -295 185 -320 4 -12 0 -19 -13 -23 -44 -14 -40 -141 6 -234 l31 -61
-23 0 c-35 0 -47 -33 -42 -112 4 -49 14 -86 35 -128 l30 -60 -23 0 c-14 0 -28
-9 -35 -22 -17 -32 -6 -144 21 -205 38 -89 148 -172 228 -173 39 0 40 -6 4
-56 -104 -142 -250 -214 -432 -214 -151 0 -261 44 -369 146 -97 91 -153 206
-167 338 -17 170 91 458 321 856 92 159 192 310 205 310 5 0 22 -19 38 -42z
m313 -99 c51 -13 115 -59 146 -104 21 -31 27 -54 31 -113 l5 -75 -60 5 c-73 7
-128 34 -176 87 -38 42 -53 82 -64 170 l-6 53 44 -7 c24 -3 60 -11 80 -16z
m584 -44 c0 -63 -25 -126 -68 -173 -34 -37 -111 -72 -164 -75 -45 -2 -47 -1
-56 31 -15 50 7 131 48 179 38 45 84 70 160 89 77 19 80 17 80 -51z m-323
-642 c1 -258 2 -542 2 -633 l1 -165 -25 0 -25 0 1 330 c4 1037 2 935 24 935
20 0 20 -7 22 -467z m-230 369 c90 -39 141 -114 142 -207 l1 -60 -57 2 c-129
4 -220 96 -235 234 l-6 62 56 -6 c30 -3 75 -14 99 -25z m568 -5 c0 -114 -86
-231 -192 -262 -90 -26 -102 -21 -106 44 -4 67 33 148 85 188 43 33 125 62
176 63 35 0 37 -1 37 -33z m750 -25 c0 -4 -27 -56 -60 -116 -67 -120 -67 -112
-13 -219 39 -78 30 -79 -54 -2 -55 49 -47 48 -138 10 l-39 -17 47 53 c26 30
65 84 87 120 40 65 40 66 24 98 -9 18 -13 35 -10 38 5 6 126 39 149 42 4 1 7
-2 7 -7z m-1336 -263 c99 -36 173 -145 164 -240 -3 -31 -6 -34 -40 -37 -129
-11 -242 95 -256 240 l-5 58 41 0 c23 0 66 -9 96 -21z m586 -17 c0 -61 -27
-135 -65 -179 -47 -56 -129 -95 -186 -91 l-44 3 -3 56 c-7 132 114 245 266
248 31 1 32 -1 32 -37z m515 -629 c-31 -82 -22 -75 -500 -355 -260 -152 -532
-308 -594 -340 -86 -44 -137 -40 -262 24 l-101 52 -19 -25 c-10 -13 -31 -50
-48 -82 -16 -31 -32 -54 -35 -49 -2 4 -16 52 -29 106 -14 54 -28 100 -32 104
-3 4 -28 -6 -54 -20 l-48 -27 -152 89 c-84 49 -241 140 -349 202 -108 62 -214
128 -235 147 -20 18 -52 63 -70 100 l-32 66 -3 190 c-1 105 1 195 5 202 5 6
20 14 35 18 l26 7 4 -194 c3 -188 4 -194 31 -250 16 -32 47 -74 70 -94 41 -35
671 -404 691 -404 5 0 35 23 67 50 64 56 60 58 78 -43 6 -32 13 -62 16 -67 3
-5 25 -2 49 6 l43 15 84 -55 c130 -86 189 -87 324 -6 44 26 184 107 310 180
537 311 611 354 638 374 15 11 38 42 52 70 25 49 25 54 25 292 0 185 3 243 13
247 9 3 13 -51 15 -242 2 -205 0 -253 -13 -288z m135 471 c13 -11 14 -47 10
-246 l-5 -234 -33 -66 c-41 -85 -86 -124 -243 -214 -68 -39 -302 -175 -520
-302 -466 -272 -493 -283 -631 -247 -31 8 -80 28 -107 46 -45 27 -51 35 -51
65 0 40 8 42 58 11 95 -60 216 -75 297 -38 40 18 599 340 907 523 251 148 258
162 258 509 l0 230 23 -12 c12 -6 29 -17 37 -25z m-2545 -217 c1 -230 4 -247
63 -310 15 -15 169 -110 344 -210 175 -100 318 -185 318 -188 0 -24 -47 -4
-210 90 -473 271 -486 280 -524 361 -19 41 -21 64 -22 250 -1 113 0 208 3 213
2 4 10 7 16 7 9 0 12 -55 12 -213z m1326 83 c95 -48 142 -118 143 -215 l1 -60
-54 2 c-135 6 -241 123 -241 266 l0 40 54 -6 c29 -3 73 -15 97 -27z m569 -8
c0 -58 -26 -133 -60 -174 -41 -49 -121 -88 -182 -88 -46 0 -47 1 -54 36 -7 41
8 103 38 152 37 60 137 109 226 111 31 1 32 -1 32 -37z m-1985 -1566 c11 -8
16 -19 12 -30 -5 -13 -15 -15 -45 -10 -53 8 -81 -16 -90 -81 -9 -59 2 -143 21
-162 7 -8 27 -15 43 -16 28 -2 29 0 32 45 3 42 1 47 -20 50 -15 2 -24 11 -26
26 -3 22 -1 23 50 20 l53 -3 3 -75 c4 -93 -11 -110 -92 -110 -44 0 -56 4 -78
28 -37 37 -48 73 -48 147 0 81 23 141 64 166 36 22 94 25 121 5z m489 -5 c6
-9 86 -317 86 -330 0 -6 -11 -11 -25 -11 -21 0 -26 7 -36 45 l-12 46 -45 -3
c-44 -3 -46 -5 -56 -43 -10 -33 -16 -41 -40 -43 -23 -3 -27 0 -22 15 3 10 23
86 46 168 23 83 43 155 45 161 3 12 52 7 59 -5z m273 7 c4 -7 20 -42 35 -78
l26 -65 12 30 c6 17 18 49 27 73 9 23 21 43 27 43 13 2 40 -2 44 -5 1 -2 -18
-49 -43 -105 -39 -89 -45 -110 -45 -171 0 -68 -1 -70 -25 -70 -24 0 -25 2 -25
74 0 66 -4 83 -45 170 -25 54 -45 99 -45 101 0 3 23 11 42 14 4 0 10 -5 15
-11z m485 -153 c55 -192 56 -195 23 -195 -21 0 -27 7 -37 45 l-12 45 -47 0
-47 0 -11 -45 c-10 -38 -15 -45 -36 -45 -14 0 -25 6 -25 13 0 17 86 323 95
337 4 6 17 10 28 8 19 -3 28 -24 69 -163z m696 -17 l2 -178 -24 0 c-25 0 -25
0 -28 113 l-3 112 -30 -90 c-24 -72 -34 -90 -49 -90 -15 0 -26 19 -52 95 l-32
95 -1 -117 -1 -118 -25 0 -25 0 0 129 c0 70 3 149 6 175 6 42 9 46 35 46 26 0
29 -5 54 -84 14 -47 28 -99 32 -117 5 -29 10 -19 45 90 38 119 40 122 66 119
l27 -3 3 -177z m487 2 c0 -173 0 -175 -22 -178 -24 -4 -38 18 -99 158 l-33 75
-1 -118 c0 -116 0 -118 -22 -115 -21 3 -22 7 -24 176 l-2 172 26 0 c25 0 31
-9 72 -106 l45 -106 3 99 c3 117 4 121 34 119 l23 -1 0 -175z m440 168 c59
-26 89 -154 61 -251 -20 -69 -52 -97 -111 -97 -81 0 -121 74 -113 208 4 52 11
81 25 100 36 49 87 63 138 40z m276 2 c15 -9 17 -15 9 -30 -8 -15 -17 -18 -45
-13 -41 7 -65 -9 -65 -42 0 -15 16 -34 52 -61 68 -51 84 -83 69 -135 -14 -47
-46 -70 -99 -71 -70 -1 -95 16 -74 50 7 9 16 10 40 1 67 -23 113 49 55 88 -14
10 -44 34 -65 54 -31 30 -38 44 -38 74 0 53 44 95 100 95 23 0 50 -5 61 -10z
m1721 -1 c27 -7 43 -19 54 -41 18 -34 12 -89 -11 -108 -13 -11 -11 -16 10 -42
34 -40 32 -80 -4 -120 -28 -31 -33 -33 -98 -33 l-68 0 -2 165 c-1 91 0 171 2
178 5 15 66 16 117 1z m417 -4 c40 -20 61 -79 61 -171 0 -122 -35 -174 -115
-174 -49 0 -89 35 -105 91 -14 49 -12 154 4 193 28 67 94 93 155 61z m266 1
c11 -8 16 -19 12 -30 -5 -13 -14 -16 -42 -10 -42 7 -65 -8 -65 -42 0 -17 14
-34 50 -60 59 -42 70 -60 70 -108 0 -25 -9 -45 -29 -68 -26 -29 -35 -33 -76
-32 -51 1 -80 21 -69 47 4 13 13 15 33 10 39 -10 64 -6 78 13 20 27 16 44 -18
73 -87 73 -99 88 -99 126 0 73 96 124 155 81z m470 2 c14 -6 25 -14 25 -18 0
-16 -27 -29 -48 -23 -66 17 -102 -30 -102 -132 0 -96 31 -145 81 -130 15 5 19
16 19 50 0 38 -3 44 -22 47 -15 2 -23 10 -23 23 0 17 8 20 53 23 l52 3 0 -80
c0 -71 -2 -82 -22 -95 -13 -9 -43 -16 -69 -16 -83 0 -129 59 -129 166 0 79 18
130 57 164 37 33 82 39 128 18z m518 -10 c26 -13 48 -71 41 -107 -4 -16 -17
-39 -29 -51 l-23 -22 29 -64 c37 -80 37 -96 3 -92 -21 2 -30 14 -53 68 -16 39
-33 66 -44 68 -15 3 -17 -6 -17 -67 0 -69 -1 -71 -25 -71 l-25 0 0 174 0 175
38 3 c42 5 79 0 105 -14z m922 -18 c33 -31 48 -91 42 -165 -8 -111 -53 -155
-156 -155 -49 0 -51 1 -51 28 0 15 -3 93 -7 174 l-6 146 29 4 c57 6 123 -8
149 -32z m-7756 -2 c17 -54 81 -298 81 -308 0 -6 -11 -10 -25 -10 -21 0 -27 7
-37 45 l-12 45 -47 0 -47 0 -11 -45 c-10 -39 -15 -45 -37 -45 -20 0 -25 4 -21
18 2 9 24 88 48 175 42 154 43 157 70 157 22 0 29 -6 38 -32z m441 -103 c0
-122 2 -137 20 -155 24 -24 29 -24 58 -4 21 14 22 22 22 155 l0 139 30 0 30 0
0 -130 c0 -154 -11 -193 -63 -215 -36 -15 -95 -8 -122 15 -25 21 -35 80 -35
208 l0 122 30 0 30 0 0 -135z m1250 -15 l0 -150 49 0 c36 0 50 -4 55 -17 11
-27 -7 -34 -85 -31 l-74 3 -3 173 -2 172 30 0 30 0 0 -150z m210 -25 l0 -175
-30 0 -30 0 0 63 c0 34 3 113 7 175 6 109 7 112 30 112 l23 0 0 -175z m570
155 c0 -18 -7 -20 -55 -20 l-55 0 0 -50 0 -50 45 0 c41 0 45 -2 45 -25 0 -23
-4 -25 -45 -25 l-45 0 0 -55 0 -55 55 0 c52 0 55 -1 55 -25 0 -25 -1 -25 -80
-25 l-80 0 0 175 0 175 80 0 c73 0 80 -2 80 -20z m500 0 c0 -16 -7 -20 -35
-20 l-35 0 0 -155 0 -155 -24 0 c-13 0 -27 7 -30 16 -3 9 -6 78 -6 155 l0 139
-35 0 c-28 0 -35 4 -35 20 0 19 7 20 100 20 93 0 100 -1 100 -20z m2380 -155
l0 -175 -30 0 -30 0 0 175 0 175 30 0 30 0 0 -175z m738 158 c-2 -14 -15 -19
-56 -21 l-52 -3 0 -49 0 -49 48 -3 c39 -3 47 -6 47 -23 0 -17 -8 -20 -47 -23
l-48 -3 0 -55 0 -54 55 0 c52 0 55 -1 55 -25 0 -25 -1 -25 -80 -25 l-80 0 0
175 0 175 81 0 c71 0 80 -2 77 -17z m372 -107 c0 -148 8 -176 48 -176 48 0 52
13 52 162 l0 138 24 0 c28 0 36 -33 36 -155 -1 -152 -24 -195 -109 -195 -88 1
-101 28 -101 209 l0 141 25 0 25 0 0 -124z m530 -52 l0 -175 -27 3 -28 3 -3
173 -2 172 30 0 30 0 0 -176z m220 161 c37 -19 55 -55 64 -121 9 -74 -9 -145
-45 -180 -27 -26 -37 -29 -97 -29 l-67 0 -3 173 -2 172 60 0 c35 0 74 -6 90
-15z m286 -140 c62 -216 59 -195 25 -195 -25 0 -30 5 -41 45 -12 45 -13 45
-56 45 -43 0 -44 0 -55 -45 -10 -41 -14 -45 -41 -45 -23 0 -28 4 -24 18 3 9
24 85 47 167 22 83 43 154 46 158 3 5 16 7 30 5 24 -3 29 -13 69 -153z m1093
-29 c27 -66 98 -136 164 -161 26 -10 47 -21 47 -25 0 -3 -25 -17 -55 -29 -65
-27 -135 -100 -161 -166 -9 -25 -20 -45 -24 -45 -3 0 -16 24 -29 54 -27 66
-98 136 -164 161 -26 10 -47 21 -47 25 0 4 21 15 47 25 66 25 137 95 164 161
13 30 26 54 29 54 3 0 16 -24 29 -54z"/>
<path d="M1996 8892 c-3 -6 -1 -14 5 -17 14 -9 20 -2 10 14 -6 8 -11 9 -15 3z"/>
<path d="M6365 8976 c-26 -26 -25 -46 3 -78 19 -22 41 -23 70 -2 28 19 29 57
2 84 -26 26 -46 25 -75 -4z"/>
<path d="M6525 8881 c-72 -45 -95 -91 -95 -192 l0 -69 170 0 170 0 0 140 0
140 -107 0 c-88 0 -114 -4 -138 -19z"/>
<path d="M6430 8400 l0 -150 170 0 170 0 0 150 0 150 -170 0 -170 0 0 -150z"/>
<path d="M6430 8045 l0 -145 170 0 170 0 0 145 0 145 -170 0 -170 0 0 -145z"/>
<path d="M8670 8969 c-17 -30 -8 -62 21 -78 24 -13 29 -13 53 2 27 18 33 45
16 78 -15 27 -75 26 -90 -2z"/>
<path d="M8340 8760 l0 -140 175 0 175 0 0 53 c0 73 -16 122 -53 164 -46 52
-81 63 -197 63 l-100 0 0 -140z"/>
<path d="M8340 8046 c0 -129 2 -144 18 -148 24 -7 272 -7 306 -1 l27 5 -3 142
-3 141 -172 3 -173 2 0 -144z"/>
<path d="M8672 6488 c-7 -7 -12 -24 -12 -38 0 -33 17 -50 51 -50 48 0 71 38
49 81 -12 22 -68 27 -88 7z"/>
<path d="M7473 8566 c-96 -31 -178 -110 -214 -205 -31 -82 -24 -196 16 -270
34 -61 96 -120 163 -153 38 -18 64 -23 132 -23 73 0 93 4 141 28 162 79 240
283 168 437 -37 80 -81 125 -157 162 -76 38 -177 47 -249 24z m-63 -141 c0
-16 -64 -105 -75 -105 -35 0 -30 51 11 99 21 25 29 29 45 21 10 -6 19 -13 19
-15z"/>
<path d="M7226 7689 c-70 -117 -125 -213 -124 -214 2 -1 24 -16 50 -33 73 -50
137 -136 161 -218 l14 -49 248 0 247 0 18 56 c9 31 31 77 49 102 28 41 51 64
128 124 l23 18 -120 205 c-66 113 -121 209 -123 215 -2 5 -32 -4 -68 -20 -57
-27 -75 -30 -159 -30 -82 0 -103 4 -154 28 -32 15 -59 27 -61 27 -1 0 -59 -95
-129 -211z m396 -24 l-3 -135 170 0 c165 0 170 -1 177 -22 13 -41 -16 -48
-188 -48 l-158 0 0 -120 0 -120 -55 0 -55 0 3 118 2 117 -155 5 c-145 5 -200
13 -200 29 0 3 7 14 14 24 12 15 33 17 175 17 l161 0 0 135 0 135 58 0 57 0
-3 -135z"/>
<path d="M6857 7430 c-108 -28 -200 -107 -238 -209 -28 -74 -23 -195 10 -259
34 -66 96 -128 160 -159 47 -24 69 -28 136 -28 98 0 167 29 234 96 67 68 95
137 95 234 0 135 -62 238 -177 295 -69 33 -157 45 -220 30z m-99 -153 c4 -20
-48 -107 -63 -107 -27 0 -34 23 -19 59 27 66 74 93 82 48z"/>
<path d="M8147 7430 c-94 -24 -182 -98 -225 -190 -38 -79 -37 -191 0 -271 33
-72 94 -134 167 -168 46 -22 70 -26 136 -25 92 0 147 21 218 84 68 60 100 129
105 226 3 48 -1 97 -8 120 -28 90 -115 181 -201 210 -54 19 -145 25 -192 14z
m-97 -145 c10 -12 6 -24 -20 -65 -34 -53 -37 -55 -59 -41 -19 12 -8 51 25 90
29 35 36 37 54 16z"/>
<path d="M2605 8179 c-11 -17 -2 -18 25 -4 24 14 24 14 3 15 -12 0 -25 -5 -28
-11z"/>
<path d="M2711 8144 c0 -11 3 -14 6 -6 3 7 2 16 -1 19 -3 4 -6 -2 -5 -13z"/>
<path d="M2600 8120 c0 -5 5 -10 10 -10 6 0 10 5 10 10 0 6 -4 10 -10 10 -5 0
-10 -4 -10 -10z"/>
<path d="M2680 7970 c0 -5 5 -10 10 -10 6 0 10 5 10 10 0 6 -4 10 -10 10 -5 0
-10 -4 -10 -10z"/>
<path d="M2755 7964 c9 -9 19 -13 23 -10 3 4 0 11 -8 16 -24 15 -33 11 -15 -6z"/>
<path d="M2718 7833 c7 -3 16 -2 19 1 4 3 -2 6 -13 5 -11 0 -14 -3 -6 -6z"/>
<path d="M2995 7670 c3 -5 8 -10 11 -10 2 0 4 5 4 10 0 6 -5 10 -11 10 -5 0
-7 -4 -4 -10z"/>
<path d="M3090 7670 c-8 -5 -11 -12 -7 -16 4 -4 13 -2 19 4 15 15 7 24 -12 12z"/>
<path d="M2855 7650 c-4 -6 -4 -10 -1 -10 2 0 11 -3 20 -6 9 -3 16 -2 16 4 0
14 -28 23 -35 12z"/>
<path d="M2998 7633 c7 -3 16 -2 19 1 4 3 -2 6 -13 5 -11 0 -14 -3 -6 -6z"/>
<path d="M2350 7570 c0 -5 5 -10 11 -10 5 0 7 5 4 10 -3 6 -8 10 -11 10 -2 0
-4 -4 -4 -10z"/>
<path d="M6360 6490 c-27 -27 -25 -55 6 -79 34 -27 40 -26 70 4 18 19 23 31
19 48 -15 47 -61 61 -95 27z"/>
<path d="M1796 6492 c-3 -6 -1 -14 5 -17 15 -10 25 3 12 16 -7 7 -13 7 -17 1z"/>
<path d="M2155 6250 c3 -5 8 -10 11 -10 2 0 4 5 4 10 0 6 -5 10 -11 10 -5 0
-7 -4 -4 -10z"/>
<path d="M3655 6520 c-3 -5 -1 -10 4 -10 6 0 11 5 11 10 0 6 -2 10 -4 10 -3 0
-8 -4 -11 -10z"/>
<path d="M3640 6490 c0 -5 7 -7 15 -4 8 4 15 8 15 10 0 2 -7 4 -15 4 -8 0 -15
-4 -15 -10z"/>
<path d="M3016 6224 c-8 -21 -8 -24 4 -24 6 0 10 6 10 14 0 8 6 17 13 19 7 4
6 6 -4 6 -9 1 -20 -6 -23 -15z"/>
<path d="M6833 5684 c-14 -22 -18 -47 -17 -109 0 -44 6 -90 12 -101 18 -33 50
-37 78 -9 21 22 24 33 24 107 0 96 -14 132 -52 136 -20 2 -31 -4 -45 -24z"/>
<path d="M8263 5702 c-20 -13 -33 -61 -33 -121 0 -102 33 -156 80 -131 29 15
40 51 39 123 0 86 -17 131 -49 135 -14 1 -30 -1 -37 -6z"/>
<path d="M2610 5650 c0 -59 0 -60 28 -60 37 0 52 17 52 56 0 39 -22 64 -56 64
-23 0 -24 -3 -24 -60z"/>
<path d="M3271 5620 c-7 -34 -15 -68 -18 -76 -4 -11 5 -14 37 -14 35 0 41 3
36 18 -3 9 -10 40 -17 67 -17 73 -25 74 -38 5z"/>
<path d="M7476 4061 c-82 -26 -101 -38 -126 -80 -6 -12 -12 -11 -35 7 -15 12
-35 22 -43 22 -9 0 -130 -35 -269 -77 l-253 -77 -21 -66 c-12 -36 -23 -67 -25
-69 -2 -2 -22 13 -45 33 -48 40 -72 44 -142 20 l-47 -16 0 -504 0 -503 33 -17
c46 -24 46 -23 4 -58 l-38 -32 1 -209 c1 -217 7 -262 47 -355 53 -122 150
-212 393 -367 133 -86 399 -240 567 -330 l103 -55 77 43 c170 93 425 241 558
324 253 159 349 243 413 363 60 111 62 138 62 759 0 625 7 563 -67 578 -18 4
-33 10 -33 13 0 4 14 27 31 52 62 92 69 113 69 209 l0 90 -117 36 c-65 20
-153 47 -196 61 -97 30 -99 30 -137 -2 -36 -30 -41 -28 -49 23 l-6 38 -285 82
c-157 45 -296 84 -310 86 -14 3 -65 -7 -114 -22z m506 -364 c4 -6 8 -127 7
-267 l0 -255 253 -5 253 -5 3 -369 c2 -278 -1 -372 -10 -383 -10 -13 -48 -14
-255 -8 l-243 7 0 -30 c0 -30 -14 -42 -51 -42 -15 0 -19 7 -20 33 -1 17 -2 48
-2 67 l-2 35 258 3 257 2 0 310 0 310 -254 0 -254 0 -6 23 c-3 12 -6 133 -6
270 l0 247 -340 0 -340 0 -2 -267 -3 -268 -252 -3 -253 -2 0 -310 0 -310 255
0 255 0 0 -66 0 -65 -32 3 c-27 2 -34 8 -36 30 l-3 27 -251 1 c-138 0 -254 2
-258 5 -7 4 -2 745 6 753 1 2 115 3 253 3 l251 -2 0 270 c0 170 4 271 10 273
5 2 189 2 407 0 300 -2 399 -5 405 -15z m-122 -278 l0 -171 -32 32 c-39 38
-93 74 -128 84 -21 6 -19 3 11 -19 20 -15 49 -49 64 -77 72 -132 1 -314 -141
-363 -45 -15 -55 -40 -24 -62 12 -9 28 -31 36 -49 18 -43 32 -43 66 0 15 19
53 47 85 62 135 67 302 11 359 -121 23 -52 17 6 -7 70 -32 85 -86 147 -164
186 -37 19 -67 39 -66 44 1 6 85 11 226 13 l225 2 0 -260 0 -260 -255 0 -255
0 0 -90 c0 -103 -3 -105 -76 -69 -52 25 -100 77 -126 137 -19 42 -21 109 -6
197 3 18 -3 20 -52 22 -30 0 -66 3 -80 5 -22 3 -25 0 -22 -27 14 -135 13 -144
-6 -188 -37 -84 -133 -166 -196 -167 -16 0 -18 8 -16 73 2 39 2 80 1 90 -1 16
-20 17 -256 17 l-255 0 2 258 3 257 229 0 c152 0 231 -4 233 -11 2 -5 -21 -20
-51 -33 -78 -32 -140 -90 -175 -164 -31 -65 -48 -132 -31 -122 6 3 10 12 10
18 0 22 60 86 103 111 114 67 244 49 344 -46 43 -42 73 -46 73 -10 0 11 11 31
25 47 15 15 24 32 22 38 -2 6 -30 25 -63 42 -97 51 -152 153 -141 261 7 65 35
122 82 162 20 18 32 32 28 32 -20 0 -113 -62 -141 -94 -17 -20 -34 -36 -37
-36 -8 0 -6 335 2 343 3 4 134 7 290 7 l283 0 0 -171z m-175 -1098 c34 -13 79
-21 115 -21 l60 0 0 -175 0 -175 -287 2 -288 3 -3 171 -2 171 78 5 c83 6 167
35 198 69 16 18 17 18 45 -5 16 -14 54 -34 84 -45z m-486 8 l31 -11 0 -214 0
-214 339 0 c300 0 340 2 345 16 3 9 6 103 6 210 l0 193 30 16 c16 8 31 15 33
15 3 0 3 -111 -1 -388 l-2 -132 -407 2 -408 3 -3 258 c-1 141 -1 257 1 257 2
0 18 -5 36 -11z"/>
<path d="M7500 3084 c-49 -16 -90 -39 -90 -49 0 -7 8 -19 18 -28 17 -16 21
-15 57 3 48 25 140 27 193 4 35 -14 38 -14 55 7 21 27 16 32 -46 53 -45 15
-153 21 -187 10z"/>
<path d="M7252 2767 c3 -67 10 -92 33 -136 29 -52 123 -141 149 -141 7 0 18
12 25 27 12 25 10 29 -11 43 -88 57 -132 131 -132 221 0 40 -3 49 -23 58 -43
20 -46 16 -41 -72z"/>
<path d="M7853 2838 c-20 -9 -23 -19 -23 -63 0 -70 -41 -148 -100 -193 -51
-39 -56 -50 -37 -76 14 -19 15 -19 50 3 54 33 123 115 141 168 20 57 22 173 4
172 -7 0 -23 -5 -35 -11z"/>
<path d="M2040 2525 c-26 -31 4 -212 43 -263 8 -10 15 -7 32 14 21 26 21 27 3
83 -9 31 -21 83 -25 116 -8 63 -27 81 -53 50z"/>
<path d="M2141 2222 c-14 -27 9 -56 83 -104 70 -45 119 -49 124 -11 3 19 -6
27 -50 46 -30 13 -70 38 -90 56 -41 36 -53 38 -67 13z"/>
<path d="M1857 788 c-9 -37 -17 -70 -17 -73 0 -3 14 -5 30 -5 35 0 36 7 16 90
l-12 55 -17 -67z"/>
<path d="M2569 775 l-16 -65 33 0 c19 0 34 5 34 11 0 11 -30 119 -33 119 -1 0
-9 -29 -18 -65z"/>
<path d="M4194 853 c-11 -26 -15 -60 -12 -116 3 -68 6 -82 27 -98 26 -22 53
-13 73 24 18 34 14 171 -6 202 -26 39 -63 34 -82 -12z"/>
<path d="M6220 836 c0 -51 1 -54 23 -49 34 9 47 23 47 52 0 33 -17 51 -47 51
-21 0 -23 -4 -23 -54z"/>
<path d="M6220 685 c0 -54 1 -55 28 -55 37 0 52 17 52 57 0 34 -21 53 -59 53
-19 0 -21 -6 -21 -55z"/>
<path d="M6616 874 c-23 -23 -29 -55 -24 -140 3 -64 7 -79 26 -94 27 -23 56
-16 71 16 17 38 14 185 -5 212 -18 26 -46 28 -68 6z"/>
<path d="M7860 830 c0 -53 2 -60 20 -60 26 0 60 34 60 60 0 26 -34 60 -60 60
-18 0 -20 -7 -20 -60z"/>
<path d="M8760 761 l0 -131 28 0 c46 0 66 31 70 111 5 79 -10 125 -42 134 -61
18 -56 28 -56 -114z"/>
<path d="M1062 789 c-17 -74 -16 -79 19 -79 30 0 31 1 25 33 -4 17 -10 47 -13
65 -8 46 -18 40 -31 -19z"/>
<path d="M8240 760 l0 -130 25 0 c37 0 62 31 70 89 13 99 -19 171 -76 171 -18
0 -19 -10 -19 -130z"/>
<path d="M8527 781 c-16 -65 -13 -71 35 -71 15 0 18 4 13 17 -3 10 -11 39 -16
65 -6 27 -12 48 -14 48 -1 0 -9 -27 -18 -59z"/>
</g>
</svg>
