<?xml version="1.0" standalone="no"?>
<!DOCTYPE svg PUBLIC "-//W3C//DTD SVG 20010904//EN"
 "http://www.w3.org/TR/2001/REC-SVG-20010904/DTD/svg10.dtd">
<svg version="1.0" xmlns="http://www.w3.org/2000/svg"
 width="443.000000pt" height="441.000000pt" viewBox="0 0 443.000000 441.000000"
 preserveAspectRatio="xMidYMid meet">

<g transform="translate(0.000000,441.000000) scale(0.100000,-0.100000)"
fill="#000000" stroke="none">
<path d="M0 2205 l0 -2205 2215 0 2215 0 0 2205 0 2205 -2215 0 -2215 0 0
-2205z m2339 1965 c34 -6 93 -26 130 -44 76 -39 1165 -667 1315 -760 124 -76
176 -127 222 -221 35 -70 36 -78 40 -201 2 -71 6 -166 8 -210 l4 -82 -47 -15
-46 -14 -10 211 -11 211 -34 63 c-57 108 -43 98 -885 587 -253 147 -504 291
-558 319 -98 51 -98 51 -206 54 l-108 4 -104 -52 c-293 -147 -1372 -782 -1414
-832 -14 -17 -40 -58 -57 -92 l-31 -61 -9 -308 c-5 -169 -13 -318 -18 -332 -8
-20 -16 -25 -45 -25 l-35 0 0 345 0 345 35 70 c70 139 116 173 660 485 209
120 470 270 580 333 403 231 453 249 624 222z m67 -198 c79 -40 1110 -636
1232 -713 133 -84 178 -123 208 -186 27 -55 27 -56 32 -333 5 -287 0 -362 -21
-341 -9 8 -13 100 -17 309 -5 294 -5 298 -30 347 -35 68 -113 124 -392 285
-128 74 -421 243 -651 377 l-417 243 -100 0 -101 0 -212 -124 c-117 -68 -410
-237 -652 -376 -557 -320 -567 -326 -608 -405 -24 -47 -35 -207 -37 -560 l-1
-220 -39 -25 c-22 -13 -40 -29 -40 -35 0 -6 36 -31 79 -55 44 -24 78 -47 75
-51 -2 -4 -27 -15 -56 -25 -28 -11 -101 -51 -162 -91 -61 -39 -112 -70 -114
-68 -2 2 21 45 53 95 65 106 68 92 -39 206 -36 40 -66 74 -66 76 0 2 30 1 68
-3 67 -7 128 0 176 22 l26 12 0 261 c1 294 10 428 35 477 27 54 73 96 166 154
94 58 1226 708 1299 745 97 50 210 51 306 2z m379 -616 c61 -126 68 -245 20
-318 -46 -69 -96 -118 -120 -118 -27 0 -69 46 -111 124 -26 46 -29 60 -29 146
0 87 3 101 32 160 17 36 48 83 69 105 l36 40 39 -44 c21 -23 50 -66 64 -95z
m-384 -37 c4 -13 7 -63 8 -110 1 -92 -9 -111 -44 -85 -15 11 -18 28 -18 98 1
85 14 133 36 125 6 -2 14 -14 18 -28z m600 10 c12 -23 9 -192 -3 -204 -4 -4
-14 -5 -23 -2 -12 5 -15 26 -15 110 0 57 3 107 7 110 11 12 22 8 34 -14z
m-1048 -145 c47 -66 247 -416 247 -432 0 -8 -11 -27 -25 -44 -45 -53 -31 -198
31 -320 13 -26 24 -49 24 -51 0 -3 -13 -7 -28 -10 -37 -8 -52 -42 -52 -121 0
-69 20 -147 56 -218 13 -26 24 -49 24 -51 0 -3 -13 -7 -29 -10 -41 -9 -55 -50
-48 -145 3 -42 15 -103 27 -135 44 -117 203 -247 302 -247 54 0 57 -20 13 -79
-103 -141 -258 -239 -430 -272 -78 -15 -262 -12 -330 6 -173 45 -334 168 -433
330 -43 71 -91 220 -98 307 -18 218 116 585 394 1073 153 271 282 465 308 465
8 0 29 -21 47 -46z m347 -120 c107 -20 163 -47 227 -109 58 -56 78 -109 86
-229 l5 -69 -67 7 c-37 3 -88 13 -114 22 -57 19 -150 101 -178 156 -27 53 -62
238 -45 238 2 0 41 -7 86 -16z m848 -67 c4 -86 -17 -151 -68 -216 -52 -65
-147 -114 -235 -119 l-62 -4 -12 32 c-36 106 29 248 144 316 54 31 160 64 200
61 30 -2 30 -2 33 -70z m-437 -277 c4 -19 9 -398 12 -842 l6 -808 -34 0 -35 0
0 723 c0 815 5 970 29 965 8 -2 18 -18 22 -38z m-366 -72 c110 -23 209 -104
239 -196 9 -26 18 -77 22 -114 l7 -68 -51 0 c-200 0 -326 121 -348 335 l-7 66
44 -6 c24 -4 67 -11 94 -17z m823 -58 c-12 -164 -132 -297 -301 -332 -68 -14
-82 -6 -91 55 -8 54 16 147 52 201 52 78 187 144 296 145 l49 1 -5 -70z m941
-132 c-100 -183 -100 -186 -40 -305 30 -61 39 -93 24 -93 -5 0 -39 27 -76 60
-79 69 -97 73 -183 35 -31 -14 -58 -25 -60 -25 -2 0 28 39 66 87 38 47 88 117
112 155 45 75 44 66 11 155 -3 7 21 19 64 32 122 36 138 39 141 24 2 -7 -24
-64 -59 -125z m-1695 -232 c71 -35 148 -119 175 -191 23 -62 28 -149 9 -162
-7 -4 -41 -7 -76 -7 -108 3 -208 68 -262 173 -25 50 -50 144 -50 189 l0 35 74
-5 c53 -4 90 -13 130 -32z m754 -41 c-12 -180 -149 -322 -324 -333 l-61 -4 -6
42 c-7 56 7 138 31 187 21 40 91 111 133 134 46 24 134 48 183 48 l49 1 -5
-75z m706 -455 c1 -279 -1 -321 -17 -367 -30 -87 -60 -108 -522 -380 -477
-280 -906 -525 -965 -550 -103 -42 -194 -26 -373 70 l-79 42 -18 -23 c-10 -12
-37 -55 -59 -96 -22 -41 -45 -77 -50 -80 -11 -7 -18 15 -57 162 -15 57 -33
106 -41 109 -7 3 -38 -9 -69 -27 -45 -25 -62 -30 -78 -22 -30 13 -754 434
-858 499 -104 64 -155 119 -208 226 l-40 79 0 247 c0 270 1 274 58 290 l32 10
1 -57 c0 -31 4 -150 8 -263 7 -199 8 -208 36 -264 46 -94 101 -140 330 -278
323 -192 666 -387 684 -387 9 0 47 25 84 55 38 30 72 55 77 55 10 0 24 -45 41
-133 6 -32 17 -61 24 -64 8 -2 37 3 65 12 l50 17 81 -52 c161 -104 236 -125
329 -93 48 16 491 269 1177 670 117 68 224 138 238 155 14 17 38 54 53 82 l26
51 3 295 c2 162 6 311 9 330 5 31 7 33 17 15 7 -13 11 -125 11 -335z m131 298
c19 -13 38 -32 42 -43 5 -11 6 -157 5 -325 l-4 -305 -36 -70 c-46 -87 -133
-176 -232 -236 -120 -74 -1065 -621 -1177 -683 -273 -148 -385 -161 -574 -66
-66 34 -99 71 -99 112 0 41 21 44 82 9 112 -64 232 -89 328 -71 58 11 406 205
1083 604 347 204 429 261 470 327 52 85 58 128 64 462 3 169 7 307 9 307 3 0
20 -10 39 -22z m-3355 -330 c5 -246 8 -288 24 -321 36 -73 78 -100 686 -456
124 -72 231 -135 239 -140 8 -5 11 -13 7 -19 -11 -18 -84 16 -316 148 -331
188 -521 304 -573 350 -98 87 -116 165 -117 517 0 173 10 237 32 215 8 -8 13
-104 18 -294z m1689 151 c94 -21 192 -94 232 -172 20 -39 46 -185 36 -209 -8
-23 -142 -6 -204 25 -65 33 -137 114 -162 181 -21 57 -37 167 -27 184 7 11 50
8 125 -9z m829 -62 c-12 -181 -131 -305 -313 -324 -65 -7 -76 6 -76 86 -1 66
33 155 74 199 53 57 184 111 271 111 l49 1 -5 -73z"/>
<path d="M1360 1851 c-25 -47 -1 -230 40 -311 23 -46 34 -47 64 -7 18 24 19
32 8 70 -7 23 -19 76 -28 117 -28 135 -33 150 -54 150 -11 0 -24 -9 -30 -19z"/>
<path d="M1502 1458 c-22 -22 -12 -46 38 -91 93 -84 210 -124 225 -77 9 28 1
37 -68 71 -34 17 -85 49 -113 70 -55 42 -64 45 -82 27z"/>
</g>
</svg>
