<?xml version="1.0" standalone="no"?>
<!DOCTYPE svg PUBLIC "-//W3C//DTD SVG 20010904//EN"
 "http://www.w3.org/TR/2001/REC-SVG-20010904/DTD/svg10.dtd">
<svg version="1.0" xmlns="http://www.w3.org/2000/svg"
 width="381.000000pt" height="452.000000pt" viewBox="0 0 381.000000 452.000000"
 preserveAspectRatio="xMidYMid meet">

<g transform="translate(0.000000,452.000000) scale(0.100000,-0.100000)"
fill="#000000" stroke="none">
<path d="M0 2260 l0 -2260 1905 0 1905 0 0 2260 0 2260 -1905 0 -1905 0 0
-2260z m2285 1952 l340 -99 61 -88 c104 -148 134 -166 134 -79 0 61 14 84 50
84 16 0 143 -36 282 -80 139 -44 294 -92 343 -107 50 -15 96 -31 103 -36 9 -7
12 -53 12 -170 l0 -161 -115 -116 c-63 -64 -115 -123 -115 -130 0 -10 18 -11
83 -6 45 4 96 8 112 9 l30 2 3 -114 3 -114 -36 -37 -36 -37 36 -27 35 -27 0
-502 c-1 -276 -5 -587 -10 -692 -8 -171 -12 -199 -38 -275 -72 -209 -164 -326
-404 -512 -190 -148 -243 -171 -359 -161 -65 6 -71 0 -37 -42 16 -21 19 -32
11 -44 -19 -30 -434 -270 -734 -424 l-141 -72 -152 78 c-173 88 -512 280 -791
448 l-190 114 -3 48 c-4 55 -17 65 -60 43 -28 -15 -32 -14 -78 17 -119 78
-275 268 -343 419 -66 145 -73 197 -79 591 l-5 359 57 57 58 58 -39 7 c-21 4
-46 9 -55 12 -17 5 -18 47 -18 704 l0 699 137 45 c132 43 138 44 167 29 40
-21 133 -93 170 -132 17 -17 33 -31 37 -31 4 0 19 33 34 72 l26 73 -50 47
c-27 26 -46 50 -41 53 4 3 169 54 366 115 l358 110 83 -81 c45 -44 88 -79 95
-77 27 9 32 73 11 137 l-21 59 157 45 c90 27 169 44 186 42 17 -3 183 -49 370
-103z"/>
<path d="M1787 4049 c-91 -26 -142 -53 -169 -89 -25 -35 -43 -37 -78 -10 -14
11 -36 20 -49 20 -21 0 -227 -58 -591 -168 l-95 -29 -30 -86 c-16 -47 -33 -88
-37 -92 -3 -4 -31 12 -61 35 -67 50 -104 57 -182 33 l-60 -19 -3 -676 -2 -676
31 -12 c17 -7 37 -20 46 -28 13 -14 9 -20 -36 -61 l-50 -46 8 -300 c10 -331
13 -354 79 -480 43 -82 145 -194 252 -275 200 -152 600 -394 1060 -642 l85
-46 180 100 c736 411 1054 629 1171 801 39 57 92 176 105 232 13 55 26 1466
14 1542 -8 53 -23 68 -74 77 -22 3 -43 11 -46 17 -4 5 16 45 44 87 70 107 81
144 81 272 l0 108 -47 16 c-165 53 -476 146 -488 146 -8 0 -35 -14 -60 -32
-24 -17 -48 -29 -51 -25 -4 3 -10 27 -15 53 -5 26 -10 49 -12 50 -11 12 -787
224 -816 223 -20 0 -67 -9 -104 -20z m645 -487 c10 -10 14 -94 16 -357 l3
-345 158 0 c87 0 240 -3 340 -7 l182 -6 -3 -498 c-2 -273 -7 -501 -11 -506 -5
-4 -157 -7 -338 -5 l-329 3 0 -35 c0 -38 -20 -56 -63 -56 -20 0 -25 6 -31 38
-3 20 -6 61 -6 90 l0 52 143 0 c78 0 233 3 345 7 l202 6 0 409 0 408 -339 0
c-313 0 -339 1 -346 18 -4 9 -10 171 -13 360 l-5 342 -447 0 -447 0 -6 -352
c-4 -193 -8 -353 -10 -355 -2 -1 -153 -6 -335 -10 l-332 -6 0 -409 0 -408 340
0 340 0 0 -90 c0 -90 0 -90 -26 -90 -39 0 -61 16 -67 50 l-7 30 -309 0 c-169
0 -323 3 -340 6 l-31 6 1 432 c1 237 4 463 8 501 l6 70 333 3 332 2 0 239 c0
131 3 293 7 361 l6 122 533 -4 c416 -3 536 -6 546 -16z m-152 -373 l0 -231
-52 47 c-48 43 -142 105 -160 105 -5 0 10 -18 33 -41 23 -23 53 -66 68 -98 35
-75 37 -211 4 -283 -32 -69 -98 -135 -174 -173 -81 -41 -90 -58 -50 -99 16
-17 36 -45 45 -63 9 -17 21 -35 26 -38 6 -4 36 16 66 45 92 87 197 123 317
109 114 -14 196 -69 259 -174 l30 -50 -7 39 c-22 132 -109 249 -244 331 -45
27 -81 52 -81 56 0 13 74 18 343 24 l257 7 0 -351 0 -351 -340 0 -340 0 0
-103 c0 -72 -4 -109 -14 -122 -13 -18 -15 -18 -60 -1 -61 23 -144 100 -181
168 -29 51 -30 58 -31 183 l-1 130 -59 6 c-32 4 -76 7 -98 8 l-39 1 7 -117 7
-118 -31 -63 c-52 -103 -149 -188 -237 -206 -29 -7 -33 -5 -39 19 -4 15 -4 63
-1 106 4 62 2 83 -10 94 -12 13 -66 15 -338 15 -180 0 -326 4 -329 9 -3 5 -3
160 1 345 l6 336 266 0 c265 0 341 -5 341 -21 0 -5 -31 -24 -69 -43 -102 -52
-173 -122 -221 -220 -22 -44 -43 -99 -46 -121 l-5 -40 22 43 c42 84 161 164
268 181 111 18 216 -16 321 -104 62 -51 90 -55 101 -12 4 15 19 41 33 58 14
17 26 36 26 43 0 6 -28 28 -63 49 -148 86 -216 203 -204 352 6 86 31 142 94
214 l47 53 -35 -17 c-47 -25 -96 -61 -150 -113 l-46 -43 -6 38 c-9 49 -9 235
0 340 l6 82 86 4 c47 1 220 4 384 5 l297 2 0 -231z m-330 -1414 c70 -47 165
-75 256 -75 l74 0 0 -235 0 -235 -383 0 -384 0 -6 227 c-4 124 -5 228 -3 230
2 3 44 8 93 13 136 12 204 35 266 86 16 13 30 24 32 24 2 0 26 -16 55 -35z
m-532 -46 l22 -9 0 -285 0 -286 445 3 c312 2 447 6 455 14 8 8 13 102 17 278
l6 267 38 19 37 20 6 -38 c3 -20 2 -176 -2 -347 l-7 -310 -22 1 c-13 0 -256 1
-542 2 l-519 2 -4 298 c-2 163 -2 319 0 345 4 52 3 51 70 26z"/>
<path d="M1770 2730 c-30 -11 -64 -29 -75 -41 l-20 -20 27 -24 28 -24 47 21
c67 30 159 35 239 13 62 -17 66 -17 84 0 11 10 20 24 20 30 0 27 -150 65 -255
64 -22 0 -65 -9 -95 -19z"/>
<path d="M1474 2416 c-14 -36 2 -200 24 -249 35 -78 193 -230 221 -213 4 3 14
19 21 36 12 29 11 32 -11 47 -13 9 -49 42 -80 73 -62 63 -88 122 -98 224 -5
54 -9 62 -38 79 -30 17 -34 17 -39 3z"/>
<path d="M2285 2420 c-34 -13 -42 -31 -48 -103 -7 -95 -41 -160 -127 -239 -39
-36 -70 -70 -70 -76 0 -5 8 -20 18 -32 l19 -23 44 30 c136 94 209 225 209 377
0 59 -13 78 -45 66z"/>
</g>
</svg>
