<?xml version="1.0" standalone="no"?>
<!DOCTYPE svg PUBLIC "-//W3C//DTD SVG 20010904//EN"
 "http://www.w3.org/TR/2001/REC-SVG-20010904/DTD/svg10.dtd">
<svg version="1.0" xmlns="http://www.w3.org/2000/svg"
 width="489.000000pt" height="491.000000pt" viewBox="0 0 489.000000 491.000000"
 preserveAspectRatio="xMidYMid meet">

<g transform="translate(0.000000,491.000000) scale(0.100000,-0.100000)"
fill="#000000" stroke="none">
<path d="M0 2455 l0 -2455 1468 0 1468 0 29 30 c16 16 34 30 41 30 20 0 26
-18 14 -40 l-11 -20 941 0 940 0 0 2455 0 2455 -2445 0 -2445 0 0 -2455z
m2510 2066 c0 -36 -3 -40 -39 -54 l-39 -16 -4 -163 -4 -163 27 -30 c41 -46 49
-68 49 -142 l0 -68 -127 3 c-71 2 -133 5 -140 7 -6 2 -13 23 -15 47 -3 43 -3
43 -43 46 -46 3 -191 -26 -310 -64 -117 -36 -347 -154 -448 -229 -343 -255
-567 -610 -653 -1033 -14 -69 -23 -130 -20 -137 2 -7 28 -15 57 -19 l52 -7 -7
-91 c-3 -50 -6 -106 -6 -125 l0 -33 -51 0 -51 0 7 -62 c9 -81 55 -261 94 -365
194 -526 692 -938 1254 -1038 114 -20 122 -17 132 56 l7 49 134 0 134 0 0 -52
c0 -83 3 -84 112 -63 193 36 407 113 548 195 188 110 399 298 511 456 149 209
257 463 310 728 12 64 12 69 -6 82 -10 8 -36 14 -57 14 l-38 0 0 123 0 124 47
9 c68 13 72 25 45 155 -82 403 -275 725 -582 974 -69 56 -130 112 -137 125
-14 28 -6 53 15 45 47 -18 192 -135 298 -240 255 -253 407 -560 479 -965 9
-52 21 -103 26 -112 21 -40 61 -48 227 -48 l160 0 6 30 c4 20 14 34 31 40 55
21 55 22 55 -136 l0 -145 -31 3 c-33 3 -42 12 -59 62 l-11 29 -162 -7 -162 -7
-34 -33 c-31 -31 -35 -43 -52 -144 -34 -206 -148 -503 -250 -653 -162 -241
-386 -445 -629 -576 -177 -95 -334 -148 -545 -183 -72 -11 -140 -27 -151 -35
-32 -21 -44 -88 -44 -243 l0 -140 35 -6 c36 -7 55 -30 55 -65 0 -20 -5 -21
-146 -21 l-145 0 3 37 c2 30 8 38 28 43 42 10 50 42 50 201 0 132 -2 149 -20
172 -25 31 -22 30 -193 62 -448 82 -810 304 -1079 660 -157 209 -273 474 -319
732 -26 149 -31 161 -75 179 -47 20 -335 17 -341 -3 -9 -27 -39 -52 -71 -58
l-32 -7 0 142 c0 154 3 161 57 143 19 -7 31 -20 37 -41 l9 -32 169 0 170 0 27
28 c22 22 29 40 35 92 16 142 70 341 132 480 229 521 720 906 1276 1001 216
36 212 31 217 255 l3 162 -33 7 c-40 9 -49 19 -49 63 l0 32 145 0 145 0 0 -39z
m293 -172 c145 -30 283 -80 452 -164 144 -72 367 -213 388 -246 8 -12 0 -30
-32 -77 -22 -33 -45 -63 -49 -66 -5 -3 -49 24 -98 60 -237 173 -491 283 -784
339 -74 14 -145 28 -157 31 -22 4 -23 9 -23 88 l0 83 103 -14 c56 -7 146 -23
200 -34z m-583 -42 l0 -84 -147 -22 c-159 -25 -240 -48 -392 -112 -373 -158
-643 -376 -854 -691 -154 -231 -252 -483 -303 -778 -9 -52 -21 -98 -27 -102
-14 -9 -109 -10 -131 -2 -23 9 -21 68 9 228 73 397 265 756 559 1051 324 325
745 527 1221 588 70 9 65 15 65 -76z m1667 -219 c43 -40 24 -97 -38 -112 -15
-3 -61 -37 -104 -76 -95 -87 -122 -92 -64 -12 67 93 109 160 109 176 0 17 37
46 59 46 8 0 25 -10 38 -22z m-39 -332 c98 -104 202 -241 202 -266 0 -21 -110
-124 -120 -113 -4 5 -38 51 -77 103 -39 52 -105 132 -147 177 -42 44 -76 85
-76 90 1 10 111 91 126 92 7 1 48 -37 92 -83z m491 -157 c29 -52 2 -85 -84
-104 -16 -3 -46 -17 -66 -30 -49 -32 -180 -97 -185 -92 -2 2 41 41 96 86 55
45 110 96 123 112 24 34 64 60 87 56 8 -1 21 -14 29 -28z m-1403 -161 c7 -7
-16 -58 -194 -425 -186 -383 -207 -431 -198 -441 4 -4 52 -10 106 -13 110 -8
130 -14 104 -33 -16 -12 -15 -14 9 -18 21 -4 27 -1 29 16 3 20 10 21 108 24
119 4 190 -4 190 -20 0 -14 -65 -100 -123 -162 -29 -31 -50 -45 -58 -40 -9 5
-10 2 -5 -11 9 -24 11 -21 -284 -395 -141 -179 -330 -422 -420 -540 -204 -269
-213 -280 -222 -280 -4 0 2 24 13 53 28 69 236 690 300 891 27 87 47 161 43
165 -3 3 -111 8 -239 11 -128 3 -236 8 -240 12 -8 8 21 127 161 663 141 534
141 537 174 547 26 8 738 4 746 -4z m-911 -35 c-4 -16 -7 -29 -8 -30 -1 0 -53
-29 -115 -62 -191 -103 -253 -153 -357 -286 -118 -152 -169 -259 -206 -437
-28 -135 -23 -339 11 -468 76 -286 267 -516 559 -672 40 -22 51 -33 51 -53 0
-34 -28 -33 -107 4 -179 85 -330 226 -447 417 -48 79 -113 230 -132 307 -21
88 -29 303 -15 417 45 360 298 693 647 849 109 50 129 52 119 14z m2125 -63
c30 -60 109 -253 141 -350 37 -107 78 -302 86 -404 l6 -78 -74 7 c-41 4 -77
12 -81 18 -3 5 -9 35 -13 66 -17 149 -84 372 -172 569 -30 68 -52 130 -50 137
6 14 105 74 124 74 7 1 22 -17 33 -39z m-1014 -164 c192 -197 282 -371 319
-616 44 -286 -19 -569 -178 -805 -53 -78 -175 -204 -258 -265 -122 -91 -306
-170 -464 -199 -87 -16 -285 -26 -285 -14 0 20 41 52 72 57 18 3 77 10 131 16
229 27 418 113 589 269 215 198 338 477 338 771 0 299 -87 503 -317 742 -57
58 -103 110 -103 115 0 14 23 33 40 33 8 0 60 -47 116 -104z m-2650 -932 c19
-5 25 -24 49 -152 51 -267 108 -433 214 -619 34 -59 61 -109 61 -113 0 -4 -32
-22 -72 -40 -69 -32 -72 -32 -86 -14 -31 41 -182 364 -211 453 -38 115 -79
308 -88 406 -6 71 -5 73 18 78 37 7 92 7 115 1z m3894 -38 c0 -97 -74 -418
-127 -551 -38 -95 -141 -307 -166 -340 -15 -19 -16 -19 -86 15 -39 18 -71 40
-71 48 0 7 14 34 31 59 104 150 228 514 255 746 l7 57 78 0 79 0 0 -34z
m-3440 -992 c319 -363 693 -571 1183 -659 l98 -18 -3 -76 -3 -76 -70 1 c-118
3 -420 86 -618 170 -273 117 -576 358 -776 616 -11 15 -6 24 46 72 32 31 60
55 63 56 3 0 39 -39 80 -86z m2999 38 c45 -40 53 -51 47 -70 -11 -34 -245
-271 -345 -351 -311 -246 -624 -382 -1002 -436 -153 -22 -139 -28 -139 65 0
44 3 80 8 80 23 0 305 53 352 66 161 45 375 147 550 261 83 55 151 112 248
207 74 72 150 152 169 179 19 26 40 47 47 47 7 0 36 -21 65 -48z m-3169 20 c0
-4 -43 -41 -95 -81 -52 -40 -95 -77 -95 -81 0 -5 -12 -22 -26 -39 -40 -48 -95
-37 -109 21 -8 34 23 68 63 68 15 0 74 26 132 59 102 58 130 69 130 53z m3309
-39 c47 -25 105 -59 128 -75 23 -15 57 -31 75 -35 56 -10 68 -21 68 -58 0 -39
-22 -65 -56 -65 -17 0 -31 11 -49 39 -13 22 -66 73 -117 114 -182 147 -187
155 -49 80z"/>
<path d="M1485 4090 c3 -5 11 -10 16 -10 6 0 7 5 4 10 -3 6 -11 10 -16 10 -6
0 -7 -4 -4 -10z"/>
<path d="M2300 3155 c-8 -9 -8 -15 -2 -15 18 0 42 12 42 21 0 14 -26 10 -40
-6z"/>
<path d="M2290 3081 c0 -5 5 -13 10 -16 6 -3 10 -2 10 4 0 5 -4 13 -10 16 -5
3 -10 2 -10 -4z"/>
<path d="M2400 2874 c0 -8 5 -12 10 -9 6 4 8 11 5 16 -9 14 -15 11 -15 -7z"/>
<path d="M2490 2876 c0 -2 7 -9 15 -16 9 -7 15 -8 15 -2 0 5 -7 12 -15 16 -8
3 -15 4 -15 2z"/>
<path d="M2810 2480 c0 -5 5 -10 11 -10 5 0 7 5 4 10 -3 6 -8 10 -11 10 -2 0
-4 -4 -4 -10z"/>
<path d="M2935 2469 c-4 -6 -5 -13 -2 -16 7 -7 27 6 27 18 0 12 -17 12 -25 -2z"/>
<path d="M2630 2440 c0 -5 9 -10 21 -10 11 0 17 5 14 10 -3 6 -13 10 -21 10
-8 0 -14 -4 -14 -10z"/>
<path d="M1216 902 c-3 -6 -1 -14 5 -17 15 -10 25 3 12 16 -7 7 -13 7 -17 1z"/>
<path d="M1695 580 c3 -5 8 -10 11 -10 2 0 4 5 4 10 0 6 -5 10 -11 10 -5 0 -7
-4 -4 -10z"/>
<path d="M3695 940 c-3 -5 -1 -10 4 -10 6 0 11 5 11 10 0 6 -2 10 -4 10 -3 0
-8 -4 -11 -10z"/>
<path d="M3688 903 c7 -3 16 -2 19 1 4 3 -2 6 -13 5 -11 0 -14 -3 -6 -6z"/>
<path d="M2843 545 c-9 -25 4 -29 17 -6 7 15 7 21 0 21 -6 0 -13 -7 -17 -15z"/>
</g>
</svg>
