<?xml version="1.0" standalone="no"?>
<!DOCTYPE svg PUBLIC "-//W3C//DTD SVG 20010904//EN"
 "http://www.w3.org/TR/2001/REC-SVG-20010904/DTD/svg10.dtd">
<svg version="1.0" xmlns="http://www.w3.org/2000/svg"
 width="372.000000pt" height="409.000000pt" viewBox="0 0 372.000000 409.000000"
 preserveAspectRatio="xMidYMid meet">

<g transform="translate(0.000000,409.000000) scale(0.100000,-0.100000)"
fill="#000000" stroke="none">
<path d="M0 2045 l0 -2045 1860 0 1860 0 0 2045 0 2045 -1860 0 -1860 0 0
-2045z m2873 1798 c-8 -59 -23 -104 -50 -152 l-25 -43 -395 7 c-330 6 -397 5
-404 -6 -5 -8 -9 -69 -9 -136 l0 -123 -75 0 -75 0 0 130 0 130 -440 0 -440 0
0 -178 0 -179 113 -6 c61 -4 197 -7 300 -7 104 0 187 -4 185 -8 -1 -5 -22 -26
-46 -47 l-44 -39 -253 -4 c-248 -4 -253 -5 -259 -26 -9 -31 -7 -319 2 -333 17
-26 69 -34 212 -32 l145 2 3 -41 3 -42 -175 0 c-174 0 -176 0 -181 -22 -3 -13
-4 -99 -3 -193 l3 -170 234 -8 c129 -4 237 -10 240 -12 10 -10 -25 -58 -49
-67 -14 -5 -116 -12 -227 -15 -112 -3 -204 -7 -205 -7 -1 -1 -4 -82 -7 -180
l-6 -179 -39 -14 c-22 -7 -41 -11 -44 -8 -3 2 -7 92 -10 200 l-5 195 -223 0
-224 0 0 -200 0 -200 218 0 c216 0 217 0 192 -20 -14 -10 -50 -32 -80 -47 -50
-26 -65 -28 -192 -31 l-138 -4 0 -59 0 -59 -55 27 c-51 25 -59 26 -107 16 -29
-6 -55 -9 -56 -8 -2 2 -6 381 -9 842 -5 820 3 1249 25 1304 16 40 67 71 131
79 31 4 617 8 1303 9 l1247 1 -6 -37z m710 -17 l47 -55 0 -349 0 -349 -47 -7
c-27 -4 -59 -15 -73 -25 l-24 -19 44 -12 c25 -7 58 -19 73 -27 l28 -14 -4
-1287 c-3 -920 -7 -1301 -16 -1337 -13 -56 -50 -100 -95 -114 -17 -5 -106 -12
-197 -16 l-167 -6 -11 32 c-6 17 -33 53 -61 80 -53 51 -65 91 -32 107 9 5 54
12 99 16 100 8 128 17 171 59 55 53 85 121 90 210 l5 77 -117 0 c-132 0 -140
6 -81 59 34 29 40 31 116 31 l80 0 -4 197 c-2 154 -7 207 -19 238 -16 38 -15
41 3 61 17 18 19 36 19 186 l0 166 -128 4 -128 4 -75 44 -74 45 200 6 c110 3
201 6 203 7 1 1 2 88 2 192 l0 190 -227 -2 -228 -3 -5 -177 c-3 -100 -9 -181
-15 -187 -6 -6 -22 -7 -40 -3 -38 11 -44 38 -44 235 l-1 147 -205 0 -205 0
-19 39 c-11 21 -17 41 -14 45 4 3 104 6 223 6 l217 0 6 145 6 146 38 44 c20
25 41 45 45 45 4 0 8 -80 8 -177 0 -98 4 -185 10 -193 7 -11 42 -15 164 -18
85 -3 185 -1 221 3 l65 7 0 189 0 189 -162 0 c-90 0 -193 3 -230 6 l-67 7 30
38 31 39 199 0 199 0 0 200 0 200 -230 0 -230 0 0 -189 0 -188 -41 -52 -41
-51 -174 0 -174 0 0 40 0 40 165 0 165 0 0 200 0 200 -252 0 -252 0 -38 37
c-21 20 -38 41 -38 45 0 4 130 8 288 8 l289 0 6 180 c6 174 7 182 37 243 16
34 30 74 30 88 0 15 3 41 6 58 l7 31 301 0 302 0 47 -54z m-1544 -516 c121
-23 267 -127 343 -244 54 -84 80 -172 81 -276 0 -131 -34 -230 -119 -343 -24
-31 -44 -62 -44 -69 0 -16 61 -126 207 -375 l124 -211 122 1 c92 1 137 -3 182
-17 283 -85 445 -356 380 -634 -50 -211 -240 -382 -461 -414 -158 -23 -317 34
-440 156 -84 85 -128 166 -151 284 l-16 82 -318 0 -319 0 -6 -27 c-40 -178
-72 -242 -169 -338 -49 -49 -94 -82 -149 -110 l-79 -40 -141 0 c-163 0 -211
13 -299 79 -119 90 -203 222 -233 366 -39 188 46 396 210 511 105 74 201 103
348 104 l117 0 167 280 c91 154 168 286 171 293 3 7 -16 39 -41 72 -91 115
-124 238 -112 415 5 76 11 101 43 165 68 140 221 261 364 289 62 12 177 13
238 1z m-1686 -1727 l47 -17 0 -92 c0 -95 5 -108 45 -116 47 -8 24 -88 -25
-88 l-30 0 0 -167 c0 -93 3 -178 6 -189 5 -20 15 -23 107 -29 l102 -8 40 -41
40 -41 -147 -3 -148 -3 0 -32 c0 -58 28 -164 53 -204 13 -21 43 -52 66 -67 36
-25 55 -30 139 -37 53 -5 121 -8 150 -9 l52 0 0 113 c0 61 4 118 9 126 6 10
19 12 44 7 43 -8 47 -20 47 -148 l0 -98 450 0 450 0 0 168 0 169 -122 6 c-66
4 -156 7 -200 7 -43 0 -78 4 -78 8 0 11 50 57 75 70 11 5 88 13 170 17 l150 7
-4 154 -3 154 76 0 76 0 0 -160 0 -160 160 0 c121 0 168 -4 189 -14 30 -16 64
-60 54 -70 -4 -3 -96 -6 -205 -6 l-198 0 0 -159 c0 -88 3 -166 6 -175 5 -14
53 -16 430 -16 l424 0 0 98 c0 109 7 126 57 135 38 7 36 12 53 -172 11 -114
23 -155 59 -201 11 -14 23 -37 26 -51 l7 -27 -589 -7 c-323 -4 -939 -6 -1369
-3 l-781 5 -45 22 c-65 31 -78 64 -89 225 -4 72 -8 336 -9 587 l0 456 50 47
c55 51 65 53 133 29z"/>
<path d="M316 3749 c-14 -17 -26 -37 -26 -44 0 -7 12 -27 26 -44 38 -45 83
-39 112 16 17 32 15 47 -13 77 -32 35 -67 34 -99 -5z"/>
<path d="M552 3640 c-92 -37 -141 -123 -149 -264 l-6 -96 227 0 226 0 0 185 0
185 -137 -1 c-76 0 -148 -4 -161 -9z"/>
<path d="M400 2990 l0 -200 225 0 225 0 0 200 0 200 -225 0 -225 0 0 -200z"/>
<path d="M400 2515 l0 -195 225 0 225 0 0 195 0 195 -225 0 -225 0 0 -195z"/>
<path d="M3396 3748 c-33 -47 -13 -99 45 -113 21 -5 31 -1 53 25 14 17 26 40
26 51 0 54 -93 81 -124 37z"/>
<path d="M2950 3465 l0 -185 231 0 231 0 -4 93 c-3 78 -8 100 -33 146 -57 104
-116 130 -297 131 l-128 0 0 -185z"/>
<path d="M3392 438 c-16 -16 -15 -83 1 -97 8 -6 28 -14 45 -17 25 -5 36 -1 56
19 31 31 33 60 6 87 -23 23 -88 28 -108 8z"/>
<path d="M1788 3207 c-207 -77 -332 -284 -300 -496 6 -39 21 -93 33 -119 31
-65 150 -180 224 -217 56 -28 67 -29 180 -30 l120 0 65 37 c163 92 252 241
252 418 0 173 -109 325 -280 391 -72 28 -237 37 -294 16z m-97 -167 c27 -15
25 -25 -27 -97 -51 -72 -77 -80 -82 -25 -4 36 26 92 61 117 26 18 23 18 48 5z"/>
<path d="M1512 2117 c-67 -111 -141 -237 -166 -281 l-45 -78 57 -42 c31 -23
78 -66 104 -95 51 -56 113 -171 124 -227 l6 -34 332 0 331 0 28 80 c36 100 93
179 186 253 51 42 71 64 66 75 -3 8 -63 115 -134 236 -71 122 -139 240 -152
263 -13 24 -31 43 -41 43 -9 0 -50 -13 -91 -30 -69 -28 -85 -30 -196 -30 -123
0 -137 3 -252 53 l-35 16 -122 -202z m479 -109 l-2 -178 205 0 c112 0 216 -4
230 -10 37 -14 36 -57 -1 -71 -16 -7 -119 -14 -230 -17 l-203 -5 -2 -156 -3
-156 -74 -3 -73 -3 3 158 4 158 -163 6 c-293 12 -333 21 -293 70 19 24 22 24
235 27 l216 4 0 179 0 180 76 -3 77 -3 -2 -177z"/>
<path d="M932 1681 c-117 -40 -231 -149 -273 -261 -29 -76 -36 -198 -15 -278
41 -160 210 -305 371 -319 141 -11 255 30 351 125 206 206 163 558 -84 690
-116 62 -249 78 -350 43z m-96 -186 c4 -17 -3 -40 -23 -77 -33 -58 -52 -74
-77 -65 -48 19 24 167 81 167 7 0 15 -11 19 -25z"/>
<path d="M2653 1681 c-150 -54 -270 -202 -293 -359 -20 -141 21 -263 125 -368
107 -108 235 -150 384 -125 84 14 141 43 211 108 104 96 140 187 140 354 0 88
-3 101 -32 159 -39 78 -126 166 -198 201 -106 51 -243 63 -337 30z m-91 -186
c10 -23 7 -32 -28 -83 -41 -59 -68 -71 -87 -41 -13 21 6 71 46 116 35 40 53
42 69 8z"/>
<path d="M311 439 c-40 -43 -29 -84 32 -115 30 -16 31 -16 59 15 15 17 28 42
28 56 0 57 -79 87 -119 44z"/>
</g>
</svg>
